<?xml version="1.0" encoding="utf-8"?>
<!-- Generator: Adobe Illustrator 22.0.1, SVG Export Plug-In . SVG Version: 6.00 Build 0)  -->
<svg version="1.1" id="Layer_1" xmlns="http://www.w3.org/2000/svg" xmlns:xlink="http://www.w3.org/1999/xlink" x="0px" y="0px"
	 viewBox="0 0 968 440" style="enable-background:new 0 0 968 440;" xml:space="preserve">
<style type="text/css">
	.st0{fill:url(#SVGID_1_);}
	.st1{fill:url(#SVGID_2_);}
	.st2{fill:url(#SVGID_3_);}
	.st3{fill:url(#SVGID_4_);}
	.st4{fill:url(#SVGID_5_);}
	.st5{fill:url(#SVGID_6_);}
	.st6{fill:url(#SVGID_7_);}
	.st7{fill:url(#SVGID_8_);}
	.st8{fill:url(#SVGID_9_);}
	.st9{fill:url(#SVGID_10_);}
	.st10{fill:url(#SVGID_11_);}
	.st11{fill:url(#SVGID_12_);}
	.st12{fill:#EC8A48;}
	.st13{fill:#77B21B;}
</style>
<g>
	
		<linearGradient id="SVGID_1_" gradientUnits="userSpaceOnUse" x1="411.2" y1="219.4397" x2="632.5461" y2="219.4397" gradientTransform="matrix(1 0 0 -1 0 442)">
		<stop  offset="0" style="stop-color:#77B21B"/>
		<stop  offset="1" style="stop-color:#B7D040"/>
	</linearGradient>
	<path class="st0" d="M430.3,261.2c21.4-27.4,54.2-48,92.3-58.1c16.4-4.4,32.9-6.5,49-6.5c10.4,0,20.6,0.9,30.4,2.7
		c2.1-5.5,3.8-11.3,5.1-17.2c-28.2-5.5-58.9-4.3-89.1,3.7c-41.8,11.1-78,33.9-101.7,64.3c-1.8,2.3-3.5,4.6-5.1,6.9
		c4.8,3.5,9.9,6.6,15.2,9.4C427.6,264.7,429,262.9,430.3,261.2z"/>
	
		<linearGradient id="SVGID_2_" gradientUnits="userSpaceOnUse" x1="470.1" y1="184.508" x2="627.0635" y2="184.508" gradientTransform="matrix(1 0 0 -1 0 442)">
		<stop  offset="0" style="stop-color:#77B21B"/>
		<stop  offset="1" style="stop-color:#B7D040"/>
	</linearGradient>
	<path class="st1" d="M533.2,239.6c-28.9,8-52,23.5-63.1,40.3c4.7,0.5,9.5,0.8,14.4,0.8c39.1,0,74-17.9,97.1-45.9
		C567,233.4,550.3,234.8,533.2,239.6z"/>
	
		<linearGradient id="SVGID_3_" gradientUnits="userSpaceOnUse" x1="437.6" y1="199.6438" x2="634.5239" y2="199.6438" gradientTransform="matrix(1 0 0 -1 0 442)">
		<stop  offset="0" style="stop-color:#77B21B"/>
		<stop  offset="1" style="stop-color:#B7D040"/>
	</linearGradient>
	<path class="st2" d="M523.6,213.1c-35.6,9.4-66,30.1-86,58.5c5.4,2.2,10.9,4,16.6,5.4c17.7-23,43.6-39.9,73.6-47.8
		c12.3-3.3,24.7-4.9,37-4.9c7.8,0,15.6,0.7,23.1,2c3.3-4.8,6.3-9.9,9-15.1C573.3,206,548.2,206.6,523.6,213.1z"/>
	
		<linearGradient id="SVGID_4_" gradientUnits="userSpaceOnUse" x1="340.9748" y1="251.3396" x2="447.7266" y2="251.3396" gradientTransform="matrix(1 0 0 -1 0 442)">
		<stop  offset="0" style="stop-color:#8DC63F"/>
		<stop  offset="1" style="stop-color:#B7D040"/>
	</linearGradient>
	<path class="st3" d="M462,189.5c-30.3-12.4-65.7-15.7-101.2-9.6c1.2,5.9,2.8,11.7,4.7,17.3c10.1-1.6,20-2.4,29.7-2.4
		c20.1,0,39,3.4,55.8,9.6c5.7-4.9,11.4-9.2,16.4-12.5C465.7,191.1,463.8,190.3,462,189.5z"/>
	
		<linearGradient id="SVGID_5_" gradientUnits="userSpaceOnUse" x1="467.4" y1="251.3396" x2="308.9" y2="251.3396" gradientTransform="matrix(1 0 0 -1 0 442)">
		<stop  offset="0" style="stop-color:#77B21B"/>
		<stop  offset="1" style="stop-color:#B7D040"/>
	</linearGradient>
	<path class="st4" d="M462,189.5c-30.3-12.4-65.7-15.7-101.2-9.6c1.2,5.9,2.8,11.7,4.7,17.3c10.1-1.6,20-2.4,29.7-2.4
		c20.1,0,39,3.4,55.8,9.6c5.7-4.9,11.4-9.2,16.4-12.5C465.7,191.1,463.8,190.3,462,189.5z"/>
	
		<linearGradient id="SVGID_6_" gradientUnits="userSpaceOnUse" x1="356.2991" y1="225.8549" x2="429.2991" y2="225.8549" gradientTransform="matrix(1 0 0 -1 0 442)">
		<stop  offset="0" style="stop-color:#8DC63F"/>
		<stop  offset="1" style="stop-color:#B7D040"/>
	</linearGradient>
	<path class="st5" d="M442.7,211.8c-22.9-6.1-47.8-7.6-73-4.3c2.7,5.9,5.8,11.5,9.4,16.9c5.6-0.5,11.2-0.8,16.6-0.8
		c11,0,21.6,1,31.7,2.9C432.2,221.7,437.4,216.7,442.7,211.8z"/>
	
		<linearGradient id="SVGID_7_" gradientUnits="userSpaceOnUse" x1="442.7" y1="225.8549" x2="340.5327" y2="225.8549" gradientTransform="matrix(1 0 0 -1 0 442)">
		<stop  offset="0" style="stop-color:#77B21B"/>
		<stop  offset="1" style="stop-color:#B7D040"/>
	</linearGradient>
	<path class="st6" d="M442.7,211.8c-22.9-6.1-47.8-7.6-73-4.3c2.7,5.9,5.8,11.5,9.4,16.9c5.6-0.5,11.2-0.8,16.6-0.8
		c11,0,21.6,1,31.7,2.9C432.2,221.7,437.4,216.7,442.7,211.8z"/>
	
		<linearGradient id="SVGID_8_" gradientUnits="userSpaceOnUse" x1="385.8491" y1="199.4864" x2="419.2491" y2="199.4864" gradientTransform="matrix(1 0 0 -1 0 442)">
		<stop  offset="0" style="stop-color:#8DC63F"/>
		<stop  offset="1" style="stop-color:#B7D040"/>
	</linearGradient>
	<path class="st7" d="M385.8,233.8c5.2,6.5,11,12.4,17.3,17.7c0.3,0,0.6,0,0.8,0c2.3-2.7,8-8.9,15.3-16.6
		C408.4,233.6,397.2,233.2,385.8,233.8z"/>
	
		<linearGradient id="SVGID_9_" gradientUnits="userSpaceOnUse" x1="419.279" y1="199.4864" x2="369.5007" y2="199.4864" gradientTransform="matrix(1 0 0 -1 0 442)">
		<stop  offset="0" style="stop-color:#77B21B"/>
		<stop  offset="1" style="stop-color:#B7D040"/>
	</linearGradient>
	<path class="st8" d="M385.8,233.8c5.2,6.5,11,12.4,17.3,17.7c0.3,0,0.6,0,0.8,0c2.3-2.7,8-8.9,15.3-16.6
		C408.4,233.6,397.2,233.2,385.8,233.8z"/>
	<g>
		
			<radialGradient id="SVGID_10_" cx="483.95" cy="311.46" r="132.2107" gradientTransform="matrix(1 0 0 -1 0 442)" gradientUnits="userSpaceOnUse">
			<stop  offset="0" style="stop-color:#FCE400"/>
			<stop  offset="1" style="stop-color:#F77D1D"/>
		</radialGradient>
		<path class="st9" d="M391.1,162c-0.3-2.9-0.4-5.8-0.4-8.8c0-51.5,41.8-93.3,93.3-93.3s93.3,41.8,93.3,93.3c0,3.2-0.2,6.3-0.5,9.4
			c11.1,0.1,21.9,1.2,32.3,3c0.3-3.6,0.5-7.2,0.5-10.9C609.7,85.3,553.4,29,484,29S358.3,85.3,358.3,154.7c0,3.1,0.1,6.2,0.3,9.3
			c9.4-1.4,19-2.1,28.9-2.1C388.8,161.9,389.9,161.9,391.1,162z"/>
		
			<radialGradient id="SVGID_11_" cx="484.956" cy="304.1594" r="99.0453" gradientTransform="matrix(1 0 0 -1 0 442)" gradientUnits="userSpaceOnUse">
			<stop  offset="0" style="stop-color:#FCE400"/>
			<stop  offset="1" style="stop-color:#F77D1D"/>
		</radialGradient>
		<path class="st10" d="M484,101.2c35,0,63.3,28.2,63.6,63.1c8.7-1.2,17.8-1.8,27-1.8c0.8,0,1.5,0,2.3,0c0.3-3.1,0.5-6.2,0.5-9.4
			c0-51.5-41.8-93.3-93.3-93.3s-93.3,41.8-93.3,93.3c0,3,0.1,5.9,0.4,8.8c10,0.2,19.8,1.1,29.3,2.7
			C420.5,129.6,448.9,101.2,484,101.2z"/>
		
			<radialGradient id="SVGID_12_" cx="486.4635" cy="270.1519" r="72.7862" gradientTransform="matrix(1 0 0 -1 0 442)" gradientUnits="userSpaceOnUse">
			<stop  offset="2.564649e-02" style="stop-color:#FCE400"/>
			<stop  offset="1" style="stop-color:#F77D1D"/>
		</radialGradient>
		<path class="st11" d="M547.6,164.3c-0.3-34.9-28.6-63.1-63.6-63.1c-35.1,0-63.5,28.4-63.6,63.4c22.8,3.8,43.6,11.5,61.2,22.1
			C500.4,175.5,523,167.7,547.6,164.3z"/>
	</g>
</g>
<g>
	<path class="st12" d="M33.9,283.3c0-0.7,0.3-1,1.1-1h17.2c4.4,0,8.5,2.5,10.6,6.4l50.3,93l0.2,0.2h0.2c0.2,0,0.3-0.2,0.3-0.3v-97.4
		c0-0.8,0.3-1.1,1-1.1h2.9c0.8,0,1.1,0.3,1.1,1.1v115.2c0,0.8-0.3,1.1-1.1,1.1h-16.5c-4.4,0-8.5-2.6-10.6-6.4l-50.7-92
		c0-0.2-0.2-0.3-0.3-0.3h-0.2h-0.2c-0.2,0.2-0.2,0.3-0.2,0.5v97.1c0,0.8-0.3,1.1-1,1.1h-2.9c-0.8,0-1.1-0.3-1.1-1.1V283.3H33.9z"/>
	<path class="st12" d="M132.8,372.1c4.4-13.1,24.4-16.7,35.7-24.6c7-4.4,12.6-14.6,6.5-21.9c-3.1-3.4-7.7-5.1-12.8-5.1
		c-3.4,0-7,0.8-11,2.3c-1.1,0.2-1.5,0.3-1.1,0.3c-0.7,0.5-0.5,1.5,0.3,1.5c5.4-0.2,10.1,3.3,12,8.7c1.1,3.4,0.2,6.9-1.3,9.7
		c-2.5,3.9-5.9,5.9-10.3,5.9c-4.1,0-8.2-2.3-10.8-6.4c-2.5-4.1-2.1-9-0.2-13.1c3.3-6.7,8.7-9.7,15.2-12.3c3.6-1.5,8-2.1,13.4-2.1
		c23.2,0,31.9,14.7,33.7,35.9c0,0.2-0.2,0.3-0.2,0.5c-7.4,12.4-13.8,24.2-21.6,31.6c-0.5,0.5-0.5,0.2-1,0.7s-1.3,0.2-1.3-0.3v-33.7
		c0.2-2-0.2-2.9-0.7-2.9s-1.1,0.5-2.3,1.6c-7,6.1-17.4,16.4-17.4,34.2c0.2,4.7,3.3,9,8,9.7h2c5.2-0.5,10.6-3.8,14.1-7
		c9.7-8.8,16.9-24.7,26.8-39.5c10.3-15.6,25.4-30.8,45.3-30.8c9.5,0,17.2,3.6,23.2,11c0.5,0.5,2.5,2.6,2.5,2.8
		c4.7-8.7,12-12.4,19.6-12.4c13.7,0,28.3,12.9,28.3,35.5v46.8c0,0.5-0.3,0.7-0.8,0.7H315c-6.5,0-12-5.1-12-11.8v-43.5
		c0-14.6-5.1-22.6-10.1-22.6c-8.3,0-10,17.2-10,22.3v55c0,0.5-0.2,0.7-0.7,0.7h-11.8c-6.5,0-11.8-5.1-11.8-11.8v-43.9
		c0-6.9,0-19-8.4-21.1c-9.3-2.6-20.8,5.2-27.5,12c-4.7,4.6-8.8,9.8-12.3,15.1c-11,16.5-18.5,35.8-32.6,45.2
		c-5.9,3.8-12.3,5.2-18.8,5.2c-11.8,0-27.8-7-27.8-21.1C131.7,375.9,132,373.8,132.8,372.1z M201.3,371.2c0.5-0.7,1.3-0.5,1.3,0.3
		V398c0,0.5-0.3,0.7-0.8,0.7c-1.3,0-11.6,0.3-17.2-4.4c-0.5-0.2-0.5-0.7,0-1.1C191.1,387.7,196.2,379.7,201.3,371.2z M214.3,314.8
		c0-0.5,0.3-0.8,0.8-0.8h14.2h0.7c1.1,0.2,2.8,0.8,4.6,1.8c0.5,0.8,0.3,1.1-0.3,1.3c-7.2,4.6-12.8,8.5-18.5,15.2
		c-0.5,0.5-1.5,0.2-1.5-0.7V314.8z M214.3,348.6c0.2-0.2,0.2-0.3,0.2-0.3c6.1-8,14.1-16.9,23.4-21c0.7-0.2,1,0.2,1,0.7v70.7
		c0,0.5-0.2,0.7-0.7,0.7h-11.8c-6.7,0-12.1-5.1-12.1-11.8L214.3,348.6L214.3,348.6z"/>
	<path class="st12" d="M340.6,318c0-0.7,0.3-1,1.1-1h13.9c4.4,0,8,3.4,8.2,7.9c0,0.5,0,0.8,0.2,1c0.2-0.2,0.2-0.5,0.7-0.7
		c4.9-5.9,11-8.8,18-8.8c8.7,0,16.5,4.9,21,12.9l0.8,1.1c0-0.3,0.2-0.7,0.7-1.1c4.4-7.9,11.3-12.4,19.6-12.4
		c13.8,0,28.2,13.3,28.2,35.4v46.2c0,0.7-0.3,1-1.1,1h-11.5c-6.7,0-12.1-5.4-12.1-12.1v-42.7c0-14.4-5.1-21.9-9.7-21.9
		c-7.7,0-9.3,16-9.3,21.6v54.2c0,0.7-0.3,1-1.1,1h-11.5c-6.7,0-12.1-5.4-12.1-12.1v-42.7c0-14.4-4.9-21.9-9.7-21.9
		c-3.9,0-8.7,5.2-9.3,19.5v56.5c0,0.7-0.3,1-1.1,1h-11.6c-6.7,0-12.1-5.4-12.1-12.1V318H340.6z"/>
	<path class="st12" d="M502.3,348.9c6.7-4.9,12.6-14.1,6.4-21.6c-3.1-3.8-7.7-5.2-12.8-5.2c-3.8,0-7.4,1-10.8,2.5
		c-0.2,0.2-0.5,0.3-0.8,0.3c-0.8,0.5-0.5,1.5,0.3,1.5c5.1,0,9.8,3.1,11.6,8.5c1.1,3.3,0.5,6.9-1.3,9.7c-2.1,3.4-6.1,5.6-10.1,5.6
		s-8.2-2.3-10.6-6.2c-2.5-3.9-2.1-8.8-0.2-12.9c5.2-10.1,17.4-14.1,28.3-14.1c27,0,33.4,20.1,33.4,42.7v39.6H531
		c-5.7,0-12.1-2.6-15.4-7.7l-0.3-0.5c-0.7-1.1-1.1-1.8-1.6-2.9c-4.7,7-11.3,12.3-20.5,12.3c-13.9,0-27.2-8.4-27.2-20.8
		c0-10.6,7.5-15.9,16-20.6C488.7,355.4,495.9,353,502.3,348.9z M499.5,392.9c7.9,0,12.3-12.6,12.3-18.3v-23.7c0.2-2,0-2.9-0.5-2.9
		s-1.3,0.5-2.5,1.6c-6.9,5.6-17.5,16.2-17,33.6C491.8,389.7,495.1,392.9,499.5,392.9z"/>
	<g>
		<path class="st13" d="M580.8,371.8c0-0.7,0.3-1,0.8-1c0.7-0.2,1.1,0.2,1.3,0.7c8.8,20.6,21.6,24.1,29.8,24.1
			c10.3,0,23.4-6.9,23.4-18.8c0-10.3-11-17.4-22.3-25.2c-14.4-9.2-30.3-20.5-30.3-39.5c0-21.6,21.4-30.9,39.5-30.9
			c5.9,0,14.4,1.6,21,6.4c7.4,5.9,10,14.7,6.1,21.3l-0.2,0.3c-1.5,2.1-3.3,3.8-5.4,4.9c-2.1,0.8-3.9,1.3-5.4,1.3
			c-4.1,0-8.3-2.5-10.3-5.9c-2-3.1-2.5-6.5-1.5-10.3c1.3-3.9,4.3-7,8.2-8.3c0.2,0,0.2,0,0.2-0.2s0-0.2,0.2-0.3v-0.2
			c-0.2-0.2-0.2-0.2-0.3-0.2c-4.1-2.1-8-3.1-11.8-3.1c-11.1,0-17.2,8.7-17.2,19.3c0,11,11,17.4,22.8,25.2
			c14.4,9.2,30.8,19.5,30.8,39.1c0,21-22.3,30.3-44.4,30.3c-16,0-27.7-7.5-34.7-22.4c-0.2-0.2-0.2-0.3-0.2-0.5L580.8,371.8
			L580.8,371.8z"/>
		<path class="st13" d="M686.1,317c6.7,0,12.1,5.4,12.1,12.1v46.2c0,5.2,0,14.2,3.9,18.2c1.3,1.3,2.9,2,5.1,2
			c7,0,10.6-7.5,10.6-22.4v-55c0-0.7,0.3-1,1.1-1h12c6.7,0,12.1,5.4,12.1,12.1v69.4c0,0.7-0.3,1-1.1,1h-7.2c-7,0-7.4-0.2-11.8-5.4
			c-0.5-0.7-0.8-1-1-1c-0.3,0-0.7,0.3-1.1,1.1c-3.4,4.1-8.4,6.2-14.6,6.2c-22.4,0-33.1-10-33.1-33.7V318c0-0.7,0.3-1,1.1-1H686.1z"
			/>
		<path class="st13" d="M751.1,316.8h15.4c5.2,0,9.7,3.3,11.5,8c6.1,17.4,17,48.5,21,59.3c0,0.2,0.2,0.3,0.3,0.3h0.2
			c0-0.2,0.2-0.2,0.2-0.3c6.5-20.1,16.5-48.6,22.1-66.5c0.2-0.5,0.5-0.7,1-0.7h3.1c0.8,0,1.1,0.5,1.1,1.5l-27.2,81.2
			c-0.2,0.5-0.5,0.8-1,0.8H788c-5.1,0-9.7-3.3-11.5-8L750,318.2c0-0.5,0-0.8,0.2-1C750.4,317,750.7,316.8,751.1,316.8z"/>
		<path class="st13" d="M840.6,357.9c6.7-3.4,14.1-6.2,20.5-10.3c7-4.4,12.6-14.6,6.5-21.9c-3.1-3.4-7.7-5.1-12.8-5.1
			c-3.4,0-7,0.8-11,2.3c-1.1,0.2-1.5,0.3-1.1,0.3c-0.7,0.5-0.5,1.5,0.3,1.5c5.4-0.2,10.1,3.3,12,8.7c1.1,3.4,0.2,6.9-1.3,9.7
			c-1.1,1.8-2.8,3.3-4.6,4.4l-1.3,0.5c-1.5,0.7-2.9,1-4.4,1c-4.1,0-8.2-2.3-10.8-6.4c-2.5-4.1-2.1-9-0.2-13.1
			c5.2-10.3,17.8-14.4,28.6-14.4c28,0,34,21.1,34,45.3c0,0.8-12.6,14.6-23.1,22.4c-0.5,0.5-1.3,0-1.3-0.7v-32.6
			c0.2-2-0.2-2.9-0.7-2.9s-1.1,0.5-2.3,1.6c-7,6.1-17.4,16.4-17.4,34.2c0.2,3.9,1.6,8.3,5.7,9.7c14.6,4.6,67.8-52.1,73-88.7
			c0-0.7-0.7-1.1-1.1-0.7c-2.5,1.8-5.1,2.8-7.9,2.8c-4.6,0-8.8-2.5-11-7c-2.6-5.4-0.8-12.1,4.4-15.6c2.5-1.5,5.1-2.1,7.9-2
			c11.1,1.3,13.6,14.2,12.3,23.4c-4.4,28.6-34.9,66.8-57.6,84.8c-7.4,5.4-15.2,10.8-25,10.6c-11.8-0.5-26.8-7.4-26.8-21.1
			C824.2,368.2,831.4,362,840.6,357.9z M894,377.4c0.2-0.5,1.1-0.2,1.1,0.5v20.8h-4.7c-4.7,0-10.1-2-13.6-5.2
			c-0.5-0.5-0.5-0.8,0-1.1C883.2,387.5,888.9,382.6,894,377.4z M906.7,316.3c0-0.5,0.3-0.8,0.8-0.8h14.6c0.5,0,0.8,0.3,0.7,1.1
			c-3.4,8.7-8.5,17.7-14.6,26.8c-0.5,0.7-1.5,0.3-1.5-0.5V316.3z M906.7,362.8c0-0.2,0.2-0.3,0.2-0.5c10.5-12.6,19-26.5,24.2-39.8
			c0.2-0.8,0.7-0.8,1.3,0c1.3,2.9,1,6.5,1,43.2v32.9c0,0.5-0.3,0.7-0.8,0.7h-13.8c-6.7,0-12.1-5.2-12.1-12L906.7,362.8L906.7,362.8z
			"/>
	</g>
</g>
</svg>
