<svg width="250" height="110" xmlns="http://www.w3.org/2000/svg" xml:space="preserve" version="1.1">
 <defs>
  <radialGradient gradientTransform="matrix(1,0,0,1,-35,-27)" gradientUnits="userSpaceOnUse" r="40.083" cy="63.911" cx="95.8718" id="SVGID_1_">
   <stop stop-color="#FADE5E" offset="0"/>
   <stop stop-color="#F69E4B" offset="1"/>
  </radialGradient>
  <radialGradient gradientTransform="matrix(1,0,0,1,-35,-27)" gradientUnits="userSpaceOnUse" r="30.508" cy="82.125" cx="95.6138" id="SVGID_2_">
   <stop stop-color="#FADE5E" offset="0"/>
   <stop stop-color="#F39148" offset="1"/>
  </radialGradient>
  <radialGradient gradientTransform="matrix(1,0,0,1,-35,-27)" gradientUnits="userSpaceOnUse" r="20.855" cy="89.315" cx="95.6138" id="SVGID_3_">
   <stop stop-color="#FADE5E" offset="0"/>
   <stop stop-color="#F48743" offset="1"/>
  </radialGradient>
  <radialGradient gradientTransform="matrix(1,0,0,1,-35,-27)" gradientUnits="userSpaceOnUse" r="25.4463" cy="91.7419" cx="50.2631" id="SVGID_4_">
   <stop stop-color="#B7D333" offset="0"/>
   <stop stop-color="#95C53D" offset="1"/>
  </radialGradient>
  <radialGradient gradientTransform="matrix(1,0,0,1,-35,-27)" gradientUnits="userSpaceOnUse" r="64.8734" cy="115.5484" cx="138.3277" id="SVGID_5_">
   <stop stop-color="#B7D333" offset="0"/>
   <stop stop-color="#95C53D" offset="1"/>
  </radialGradient>
 </defs>
 <g>
  <title>Layer 1</title>
  <g id="svg_1">
   <g id="svg_2">
    <g id="svg_3">
     <g id="svg_4">
      <path id="svg_5" fill="#9FC93B" d="m138.3,37.9l-13.4,-13.6l0.7,0.2l0,12.9l-2.3,0l0,-17.9l0.1,0l13.2,13.7l-0.5,-0.1l0,-13l2.3,0l-0.1,17.8l0,0z" class="st0"/>
      <path id="svg_6" fill="#9FC93B" d="m146.9,37.6c-0.9,0 -1.8,-0.2 -2.5,-0.6c-0.8,-0.4 -1.4,-1 -1.8,-1.8c-0.4,-0.8 -0.7,-1.7 -0.7,-2.8s0.2,-2.1 0.7,-2.9c0.5,-0.8 1.1,-1.4 1.9,-1.8c0.8,-0.4 1.6,-0.6 2.6,-0.6c0.9,0 1.7,0.2 2.4,0.6c0.6,0.4 1.1,0.9 1.5,1.5l-0.1,0.4l0.2,-2.1l2.1,0l0,9.9l-2.2,0l0,-2.6l0.3,0.6c-0.1,0.2 -0.2,0.4 -0.5,0.6c-0.2,0.2 -0.5,0.5 -0.9,0.8c-0.3,0.3 -0.7,0.5 -1.2,0.6c-0.7,0.1 -1.2,0.2 -1.8,0.2zm0.6,-1.8c0.6,0 1.1,-0.1 1.5,-0.3c0.4,-0.2 0.8,-0.5 1.1,-0.9c0.3,-0.4 0.5,-0.8 0.6,-1.3l0,-1.9c-0.1,-0.5 -0.4,-0.9 -0.7,-1.3c-0.3,-0.4 -0.7,-0.6 -1.2,-0.8s-0.9,-0.3 -1.5,-0.3c-0.6,0 -1.2,0.1 -1.7,0.4s-0.9,0.7 -1.2,1.2c-0.3,0.5 -0.4,1.1 -0.4,1.8c0,0.6 0.2,1.2 0.5,1.8s0.7,0.9 1.2,1.2c0.7,0.2 1.2,0.4 1.8,0.4z" class="st0"/>
      <path id="svg_7" fill="#9FC93B" d="m158.9,27.4l0.2,2.2l-0.1,-0.2c0.4,-0.8 0.9,-1.3 1.6,-1.8c0.7,-0.4 1.5,-0.7 2.4,-0.7c0.5,0 1,0.1 1.5,0.3c0.4,0.2 0.8,0.4 1.1,0.8c0.3,0.3 0.5,0.7 0.5,1.2l-0.1,0.1c0.4,-0.7 0.9,-1.3 1.6,-1.7c0.7,-0.4 1.4,-0.6 2.1,-0.6c1,0 1.7,0.3 2.3,0.8c0.6,0.6 0.9,1.3 0.9,2.1l0,7.4l-2.3,0l0,-6.6c0,-0.5 -0.1,-0.9 -0.4,-1.3c-0.2,-0.3 -0.6,-0.5 -1.2,-0.5c-0.6,0 -1.1,0.2 -1.5,0.5s-0.8,0.8 -1.1,1.3c-0.2,0.6 -0.4,1.2 -0.4,1.8l0,4.7l-2.3,0l0,-6.6c0,-0.5 -0.1,-0.9 -0.4,-1.3c-0.2,-0.3 -0.7,-0.5 -1.2,-0.5c-0.6,0 -1.1,0.2 -1.5,0.5c-0.4,0.3 -0.8,0.8 -1.1,1.4s-0.4,1.2 -0.4,1.8l0,4.7l-2.3,0l0,-9.9l2.1,0l0,0.1z" class="st0"/>
      <path id="svg_8" fill="#9FC93B" d="m178.7,27.4l0.2,2.2l-0.1,-0.2c0.4,-0.8 0.9,-1.3 1.6,-1.8c0.7,-0.4 1.5,-0.7 2.4,-0.7c0.5,0 1,0.1 1.5,0.3c0.4,0.2 0.8,0.4 1.1,0.8c0.3,0.3 0.5,0.7 0.5,1.2l-0.1,0.1c0.4,-0.7 0.9,-1.3 1.6,-1.7c0.7,-0.4 1.4,-0.6 2.1,-0.6c1,0 1.7,0.3 2.3,0.8c0.6,0.6 0.9,1.3 0.9,2.1l0,7.4l-2.3,0l0,-6.6c0,-0.5 -0.1,-0.9 -0.4,-1.3c-0.2,-0.3 -0.6,-0.5 -1.2,-0.5c-0.6,0 -1.1,0.2 -1.5,0.5s-0.8,0.8 -1.1,1.3c-0.2,0.6 -0.4,1.2 -0.4,1.8l0,4.7l-2.3,0l0,-6.6c0,-0.5 -0.1,-0.9 -0.4,-1.3c-0.2,-0.3 -0.7,-0.5 -1.2,-0.5c-0.6,0 -1.1,0.2 -1.5,0.5c-0.4,0.3 -0.8,0.8 -1.1,1.4s-0.4,1.2 -0.4,1.8l0,4.7l-2.3,0l0,-9.9l2.1,0l0,0.1z" class="st0"/>
      <path id="svg_9" fill="#9FC93B" d="m200.6,37.6c-0.9,0 -1.8,-0.2 -2.5,-0.6c-0.8,-0.4 -1.4,-1 -1.8,-1.8c-0.4,-0.8 -0.7,-1.7 -0.7,-2.8s0.2,-2.1 0.7,-2.9c0.5,-0.8 1.1,-1.4 1.9,-1.8c0.8,-0.4 1.6,-0.6 2.6,-0.6c0.9,0 1.7,0.2 2.4,0.6c0.6,0.4 1.1,0.9 1.5,1.5l-0.1,0.4l0.2,-2.1l2.1,0l0,9.9l-2.2,0l0,-2.6l0.3,0.6c-0.1,0.2 -0.2,0.4 -0.5,0.6c-0.2,0.2 -0.5,0.5 -0.9,0.8c-0.3,0.3 -0.7,0.5 -1.2,0.6c-0.7,0.1 -1.2,0.2 -1.8,0.2zm0.6,-1.8c0.6,0 1.1,-0.1 1.5,-0.3c0.4,-0.2 0.8,-0.5 1.1,-0.9c0.3,-0.4 0.5,-0.8 0.6,-1.3l0,-1.9c-0.1,-0.5 -0.4,-0.9 -0.7,-1.3c-0.3,-0.4 -0.7,-0.6 -1.2,-0.8s-0.9,-0.3 -1.5,-0.3c-0.6,0 -1.2,0.1 -1.7,0.4s-0.9,0.7 -1.2,1.2c-0.3,0.5 -0.4,1.1 -0.4,1.8c0,0.6 0.2,1.2 0.5,1.8s0.7,0.9 1.2,1.2c0.6,0.2 1.2,0.4 1.8,0.4z" class="st0"/>
     </g>
    </g>
   </g>
   <g id="svg_10">
    <g id="svg_11">
     <g id="svg_12">
      <path id="svg_13" fill="#F15822" d="m140.2,55.7c-1.1,-0.6 -2.4,-1.1 -3.7,-1.5c-1.3,-0.4 -2.7,-0.6 -4,-0.6c-1.8,0 -3.2,0.4 -4.3,1.2c-1.1,0.8 -1.6,1.9 -1.6,3.3c0,1 0.3,1.9 1,2.6c0.7,0.7 1.6,1.3 2.7,1.9s2.2,1 3.5,1.5c1,0.4 2,0.8 3,1.3s1.9,1.1 2.7,1.9c0.8,0.7 1.5,1.6 1.9,2.7c0.5,1.1 0.7,2.4 0.7,4c0,1.8 -0.4,3.4 -1.3,4.8c-0.9,1.4 -2.1,2.6 -3.7,3.4c-1.6,0.8 -3.6,1.2 -5.8,1.2c-1.4,0 -2.8,-0.2 -4.2,-0.5c-1.3,-0.3 -2.6,-0.8 -3.7,-1.3s-2.1,-1.1 -3,-1.7l2,-3.5c0.7,0.5 1.6,1 2.5,1.5c0.9,0.5 1.9,0.9 3,1.1c1,0.3 2.1,0.4 3,0.4c1.1,0 2.1,-0.2 3.1,-0.6s1.9,-1 2.5,-1.7c0.7,-0.8 1,-1.9 1,-3.2c0,-1.1 -0.3,-2 -0.9,-2.8c-0.6,-0.8 -1.4,-1.4 -2.3,-2c-1,-0.5 -2,-1 -3.2,-1.4c-1.1,-0.4 -2.1,-0.8 -3.2,-1.3c-1.1,-0.5 -2,-1.1 -2.9,-1.8c-0.9,-0.7 -1.6,-1.5 -2.2,-2.6c-0.6,-1 -0.9,-2.2 -0.9,-3.7c0,-1.7 0.4,-3.3 1.3,-4.6c0.8,-1.3 2,-2.3 3.5,-3.1c1.5,-0.8 3.2,-1.2 5.1,-1.2c2.1,0 4,0.3 5.7,0.8c1.6,0.5 3.1,1.2 4.3,1.9l-1.6,3.6z" class="st1"/>
      <path id="svg_14" fill="#F15822" d="m154.8,83.7c-1.8,0 -3.2,-0.5 -4.3,-1.6c-1.1,-1.1 -1.7,-2.4 -1.8,-4.1l0,-14l4.3,0l0,12.6c0.1,1 0.4,1.8 0.9,2.5s1.4,1 2.6,1c1,0 2,-0.3 2.8,-0.9c0.8,-0.6 1.5,-1.5 2,-2.6c0.5,-1.1 0.8,-2.3 0.8,-3.7l0,-8.9l4.3,0l0,19l-3.9,0l-0.4,-4.7l0.3,0.9c-0.4,0.9 -1,1.6 -1.7,2.3c-0.7,0.7 -1.6,1.2 -2.6,1.6c-1.1,0.4 -2.2,0.6 -3.3,0.6z" class="st1"/>
      <path id="svg_15" fill="#F15822" d="m181.5,83.6l-10.5,-19.6l5.1,0l7.1,15.1l-2.6,-0.1l6.6,-15l4.8,0l-10.2,19.6l-0.3,0z" class="st1"/>
      <path id="svg_16" fill="#F15822" d="m204.5,83.5c-1.8,0 -3.4,-0.4 -4.9,-1.1c-1.5,-0.8 -2.6,-1.9 -3.5,-3.4s-1.3,-3.3 -1.3,-5.5s0.4,-4 1.3,-5.5c0.9,-1.5 2.1,-2.7 3.6,-3.5c1.5,-0.8 3.1,-1.2 4.9,-1.2c1.8,0 3.3,0.4 4.5,1.2c1.2,0.8 2.2,1.8 2.8,2.9l-0.3,0.7l0.4,-4l4,0l0,19l-4.3,0l0,-5l0.5,1.1c-0.2,0.3 -0.4,0.7 -0.9,1.2s-1,1 -1.6,1.4c-0.7,0.5 -1.4,0.9 -2.3,1.2c-0.8,0.3 -1.8,0.5 -2.9,0.5zm1.1,-3.6c1.1,0 2,-0.2 2.9,-0.6s1.6,-1 2.1,-1.7c0.6,-0.7 1,-1.6 1.2,-2.6l0,-3.7c-0.2,-0.9 -0.7,-1.7 -1.3,-2.4c-0.6,-0.7 -1.3,-1.2 -2.2,-1.6c-0.9,-0.4 -1.8,-0.6 -2.8,-0.6c-1.2,0 -2.2,0.3 -3.2,0.8c-1,0.6 -1.7,1.3 -2.3,2.3c-0.6,1 -0.9,2.1 -0.9,3.4c0,1.2 0.3,2.3 0.9,3.4c0.6,1 1.4,1.8 2.3,2.4c1.1,0.6 2.2,0.9 3.3,0.9z" class="st1"/>
      <path id="svg_17" fill="#F15822" d="m223.2,57.1c0,-0.7 0.3,-1.2 0.8,-1.7c0.5,-0.5 1.1,-0.7 1.8,-0.7c0.6,0 1.2,0.2 1.7,0.7s0.8,1 0.8,1.7c0,0.7 -0.3,1.3 -0.8,1.7c-0.5,0.4 -1.1,0.7 -1.7,0.7c-0.6,0 -1.2,-0.2 -1.8,-0.7c-0.6,-0.5 -0.8,-1 -0.8,-1.7zm0.3,6.9l4.3,0l0,19l-4.3,0l0,-19z" class="st1"/>
     </g>
    </g>
   </g>
  </g>
  <path id="svg_18" fill="url(#SVGID_1_)" d="m109.2,55.7c0,1.7 -0.1,3.3 -0.2,4.9c-0.1,0 -0.2,0 -0.3,0c-0.5,-0.1 -1,-0.2 -1.6,-0.3l-0.4,-0.1c-0.6,-0.1 -1.3,-0.2 -1.9,-0.3l-0.5,-0.1c-0.5,-0.1 -1.1,-0.2 -1.7,-0.2c-0.2,0 -0.3,0 -0.5,0c-0.1,0 -0.2,0 -0.2,0s-0.2,0 -0.2,0c-0.3,0 -0.6,-0.1 -0.9,-0.1c-0.1,0 -0.1,0 -0.2,0c0,0 -0.1,0 -0.1,0c-0.2,0 -0.4,0 -0.6,0c-0.6,-0.1 -1.2,-0.1 -1.8,-0.1l-0.5,0c-0.6,0 -1.2,-0.1 -1.9,-0.1l0,0c-0.1,0 -0.2,0 -0.3,0c-1.5,0 -3,0 -4.5,0c-0.1,0 -0.2,0 -0.2,0c-0.1,0 -0.3,0 -0.5,0l-0.5,0c-0.3,0 -0.7,0 -1,0l-0.2,0c-0.2,0 -0.5,0 -0.8,0c-0.8,0 -1.5,0.1 -2.2,0.2c-0.9,0.1 -1.7,0.2 -2.5,0.3c-0.6,0.1 -1.3,0.2 -1.9,0.3c-0.1,0 -0.2,0 -0.3,0c-0.1,0 -0.1,0 -0.2,0l-0.5,0.1c-0.5,0.1 -0.9,0.2 -1.4,0.2c-0.1,0 -0.2,0 -0.3,0c-0.2,0 -0.5,0.1 -0.7,0.1l-0.5,0.1l-0.2,0l0,0c-0.6,0.1 -1.2,0.3 -1.8,0.4c-0.7,0.2 -1.4,0.3 -2.1,0.5c-0.6,0.2 -1.2,0.3 -1.7,0.5c-0.1,0 -0.2,0 -0.3,0.1c-0.2,0 -0.3,0.1 -0.5,0.2c-0.2,0 -0.3,0.1 -0.5,0.2c-0.1,0 -0.2,0.1 -0.3,0.1c-0.1,0 -0.1,0.1 -0.2,0.1l-1.5,0.5c-1.2,0.4 -2.5,0.9 -3.8,1.4c-0.6,0.2 -1.2,0.5 -1.8,0.7c-0.4,0.2 -0.8,0.3 -1.1,0.5l-0.2,0.1c-0.5,0.2 -1,0.5 -1.5,0.7l-0.1,0l-1.8,-0.8c-10.6,-4.5 -21.9,-6.8 -33.6,-6.8c-3.8,0 -7.7,0.3 -11.5,0.8l0,0c-0.1,-1.3 -0.2,-2.7 -0.2,-4.1c0,-26.7 21.7,-48.3 48.3,-48.3c26.8,-0.1 48.4,21.6 48.4,48.3z" class="st2"/>
  <path id="svg_19" fill="url(#SVGID_2_)" d="m97.1,55.7c0,1.1 -0.1,2.3 -0.2,3.4c-0.4,0 -0.7,0 -1.1,0l0,0c-0.1,0 -0.2,0 -0.3,0c-1.5,0 -3,0 -4.5,0c-0.1,0 -0.2,0 -0.2,0c-0.1,0 -0.3,0 -0.5,0l-0.5,0c-0.3,0 -0.7,0 -1,0l-0.2,0c-0.2,0 -0.5,0 -0.8,0c-0.8,0 -1.5,0.1 -2.2,0.2c-0.9,0.1 -1.7,0.2 -2.5,0.3c-0.6,0.1 -1.3,0.2 -1.9,0.3c-0.1,0 -0.2,0 -0.3,0c-0.1,0 -0.1,0 -0.2,0l-0.5,0.1c-0.5,0.1 -0.9,0.2 -1.4,0.2c-0.1,0 -0.2,0 -0.3,0c-0.2,0 -0.5,0.1 -0.7,0.1l-0.5,0.1l-0.2,0l0,0c-0.6,0.1 -1.2,0.3 -1.8,0.4c-0.7,0.2 -1.4,0.3 -2.1,0.5c-0.6,0.2 -1.2,0.3 -1.7,0.5c-0.1,0 -0.2,0 -0.3,0.1c-0.2,0 -0.3,0.1 -0.5,0.2c-0.2,0 -0.3,0.1 -0.5,0.2c-0.1,0 -0.2,0.1 -0.3,0.1c-0.1,0 -0.1,0.1 -0.2,0.1l-1.5,0.5c-1.2,0.4 -2.5,0.9 -3.8,1.4c-0.6,0.2 -1.2,0.5 -1.8,0.7c-0.4,0.2 -0.8,0.3 -1.1,0.5l-0.2,0.1c-0.5,0.2 -1,0.5 -1.5,0.7l-0.1,0l-1.8,-0.8c-10.4,-4.4 -21.5,-6.7 -32.9,-6.8c-0.1,-1.1 -0.2,-2.2 -0.2,-3.3c0,-20 16.2,-36.2 36.2,-36.2c19.9,0.2 36.1,16.4 36.1,36.4z" class="st3"/>
  <path id="svg_20" fill="url(#SVGID_3_)" d="m85.4,58.4c0,0.3 0,0.6 0,0.9c-0.8,0.1 -1.7,0.2 -2.4,0.3c-0.6,0.1 -1.3,0.2 -1.9,0.3c-0.1,0 -0.2,0 -0.3,0c-0.1,0 -0.1,0 -0.2,0l-0.5,0.1c-0.5,0.1 -0.9,0.2 -1.4,0.2c-0.1,0 -0.2,0 -0.3,0c-0.2,0 -0.5,0.1 -0.7,0.1l-0.5,0.1l-0.2,0l0,0c-0.6,0.1 -1.2,0.3 -1.8,0.4c-0.7,0.2 -1.4,0.3 -2.1,0.5c-0.6,0.2 -1.2,0.3 -1.7,0.5c-0.1,0 -0.2,0 -0.3,0.1c-0.2,0 -0.3,0.1 -0.5,0.2c-0.2,0 -0.3,0.1 -0.5,0.2c-0.1,0 -0.2,0.1 -0.3,0.1c-0.1,0 -0.1,0.1 -0.2,0.1l-1.5,0.5c-1.2,0.4 -2.5,0.9 -3.8,1.4c-0.6,0.2 -1.2,0.5 -1.8,0.7c-0.4,0.2 -0.8,0.3 -1.1,0.5l-0.2,0.1c-0.5,0.2 -1,0.5 -1.5,0.7l-0.1,0l-1.8,-0.8c-6.9,-2.9 -14.1,-4.9 -21.5,-5.9c0,-0.5 0,-0.9 0,-1.4c0,-13.6 11,-24.6 24.6,-24.6c13.5,0.2 24.5,11.2 24.5,24.7z" class="st4"/>
  <path id="svg_21" fill="url(#SVGID_4_)" d="m55.8,70.4c-2.1,1.2 -4.1,2.6 -6.1,4c-7.1,-2 -14.6,-3.1 -22.3,-3.1c-4.1,0 -8.1,0.3 -12,0.9c-0.9,-2.4 -1.6,-4.9 -2,-7.5c3.5,-0.5 7.2,-0.7 10.9,-0.7c11.1,0 21.8,2.2 31.5,6.4zm-28.4,5.2c-3.5,0 -6.9,0.2 -10.3,0.7c0.9,2 2,3.9 3.2,5.7c3,-0.3 6,-0.5 9,-0.5c3.8,0 7.6,0.3 11.3,0.8c1.6,-1.6 3.3,-3.2 5,-4.6c-5.8,-1.4 -11.9,-2.1 -18.2,-2.1zm1.9,9.9c-2.1,0 -4.2,0.1 -6.3,0.2c2.4,3 5.1,5.7 8,8c1.8,-2.8 3.9,-5.4 6.1,-7.9c-2.5,-0.1 -5.1,-0.3 -7.8,-0.3z" class="st5"/>
  <path id="svg_22" fill="url(#SVGID_5_)" d="m99.1,85.2c-2.6,3 -5.6,5.7 -8.8,8c-0.8,0.6 -1.5,1.1 -2.3,1.6c-0.7,0.5 -1.4,0.9 -2.1,1.3c-0.9,0.6 -1.8,1.1 -2.8,1.6c-1,0.5 -2.1,1 -3.1,1.5c-1.1,0.5 -2.3,1 -3.5,1.4c-5.4,2 -11.2,3.2 -17.3,3.4l-0.1,0c-1.4,0 -2.8,-0.2 -4.1,-0.3c0,0 0.1,-0.1 0.1,-0.1c0.3,-0.4 0.7,-0.7 1,-1.1c0.1,-0.1 0.1,-0.1 0.2,-0.2c0.4,-0.4 0.8,-0.8 1.2,-1.2c0.4,-0.4 0.8,-0.7 1.2,-1.1c0.4,-0.4 0.8,-0.7 1.2,-1.1c0.3,-0.2 0.5,-0.5 0.8,-0.7c0.6,-0.5 1.2,-1 1.8,-1.5c0.2,-0.2 0.5,-0.4 0.7,-0.5c0,0 0,0 0.1,0c0.4,-0.3 0.8,-0.6 1.2,-0.9c0.5,-0.3 1,-0.7 1.5,-1c0.4,-0.3 0.9,-0.6 1.3,-0.8c0.2,-0.2 0.5,-0.3 0.7,-0.5c0,0 0,0 0.1,0c0.5,-0.3 1,-0.6 1.5,-0.8c0.3,-0.2 0.7,-0.4 1,-0.5c0.3,-0.1 0.5,-0.3 0.8,-0.4c0.8,-0.4 1.5,-0.8 2.3,-1.1c0,0 0,0 0,0c0,0 0,0 0.1,0c0.6,-0.3 1.2,-0.5 1.8,-0.8c0.6,-0.3 1.3,-0.5 1.9,-0.7c0.6,-0.2 1.1,-0.4 1.7,-0.6c0.1,0 0.3,-0.1 0.4,-0.1c0.6,-0.2 1.1,-0.4 1.7,-0.5c0.6,-0.2 1.2,-0.3 1.8,-0.5c0.6,-0.1 1.2,-0.3 1.8,-0.4c0.9,-0.2 1.7,-0.3 2.6,-0.5c0.4,-0.1 0.7,-0.1 1.1,-0.2c1.2,-0.2 2.4,-0.3 3.6,-0.4c0.5,0 1,-0.1 1.5,-0.1c1,-0.1 2,-0.1 3,-0.1c0.7,-0.2 1.6,-0.2 2.4,-0.1zm1,-9.4c-1.6,-0.1 -3.2,-0.2 -4.9,-0.2c-0.7,0 -1.3,0 -2,0l0,0c-0.5,0 -1.1,0 -1.6,0.1c-0.2,0 -0.5,0 -0.7,0c-1.2,0.1 -2.5,0.2 -3.7,0.3c-0.5,0.1 -1,0.1 -1.5,0.2c-0.1,0 -0.1,0 -0.2,0c-0.5,0.1 -1,0.1 -1.5,0.2c-1.2,0.2 -2.3,0.4 -3.5,0.7c-0.5,0.1 -1,0.2 -1.5,0.3c-0.2,0 -0.5,0.1 -0.7,0.2c-0.6,0.2 -1.2,0.3 -1.9,0.5c-0.8,0.2 -1.5,0.5 -2.3,0.7c-0.3,0.1 -0.6,0.2 -0.9,0.3c-0.4,0.1 -0.7,0.2 -1.1,0.4c-0.4,0.1 -0.8,0.3 -1.2,0.4c-0.1,0 -0.1,0 -0.1,0.1c-0.4,0.1 -0.8,0.3 -1.2,0.5c-0.8,0.3 -1.7,0.7 -2.5,1.1c-0.3,0.1 -0.6,0.3 -0.9,0.4c-1.1,0.5 -2.2,1.1 -3.3,1.7c-0.9,0.5 -1.7,0.9 -2.5,1.4c-0.4,0.2 -0.8,0.5 -1.2,0.7c0,0 0,0 0,0c-0.4,0.2 -0.8,0.5 -1.2,0.8c-0.7,0.4 -1.3,0.9 -2,1.3c-0.7,0.5 -1.3,0.9 -1.9,1.4c-0.5,0.4 -1.1,0.8 -1.6,1.2c-0.5,0.4 -0.9,0.8 -1.4,1.1c-0.1,0.1 -0.2,0.1 -0.2,0.2c-0.3,0.3 -0.6,0.5 -0.9,0.8c-1.2,1 -2.4,2.2 -3.5,3.3c-0.3,0.3 -0.7,0.7 -1,1c-0.6,0.7 -1.3,1.4 -1.9,2.1c-0.3,0.4 -0.6,0.7 -0.9,1.1c0,0 -0.1,0.1 -0.1,0.2c2.1,0.9 4.2,1.6 6.5,2.1l0,0c0.6,-0.7 1.3,-1.3 1.9,-2c0.3,-0.3 0.7,-0.7 1,-1c0.3,-0.3 0.7,-0.6 1,-1c0.2,-0.2 0.5,-0.4 0.7,-0.7c0.3,-0.3 0.6,-0.6 1,-0.8c0.1,-0.1 0.3,-0.2 0.4,-0.3c0.4,-0.4 0.8,-0.7 1.2,-1c0,0 0.1,-0.1 0.2,-0.1c0.5,-0.4 1,-0.8 1.6,-1.2l0,0c0.5,-0.4 1.1,-0.8 1.7,-1.2c0.6,-0.4 1.1,-0.8 1.7,-1.1c0.3,-0.2 0.6,-0.4 0.9,-0.6c1,-0.6 1.9,-1.2 2.9,-1.7c1.5,-0.8 3,-1.6 4.6,-2.3c0.6,-0.3 1.2,-0.5 1.8,-0.8c0.2,-0.1 0.3,-0.1 0.5,-0.2c0.6,-0.2 1.2,-0.5 1.8,-0.7c0.5,-0.2 0.9,-0.3 1.4,-0.5c0.3,-0.1 0.5,-0.2 0.8,-0.3c0.7,-0.2 1.4,-0.5 2.2,-0.7c0.5,-0.2 1.1,-0.3 1.6,-0.5c0.8,-0.2 1.5,-0.4 2.2,-0.6c2.3,-0.5 4.7,-0.9 7.1,-1.2c1.1,-0.1 2.2,-0.2 3.4,-0.3c1.2,-0.1 2.4,-0.1 3.6,-0.1c0.7,0 1.5,0 2.2,0c0.2,0 0.3,0 0.5,0c0.5,0 0.9,0 1.3,0.1c0.5,0 0.9,0.1 1.3,0.1c1.2,-1.9 2.3,-3.8 3.3,-5.8c-1.8,0.1 -3.3,0 -4.8,-0.1zm7.7,-10.4c-0.5,-0.1 -1.1,-0.2 -1.6,-0.3c-0.1,0 -0.2,0 -0.3,0c-0.6,-0.1 -1.2,-0.2 -1.8,-0.3c-0.2,0 -0.3,0 -0.5,-0.1c-0.5,-0.1 -1,-0.1 -1.5,-0.2c-0.2,0 -0.3,0 -0.5,-0.1c-0.1,0 -0.1,0 -0.2,0c-0.1,0 -0.2,0 -0.3,0c-0.2,0 -0.5,-0.1 -0.8,-0.1c-0.1,0 -0.2,0 -0.3,0c-0.1,0 -0.1,0 -0.2,0c-0.1,0 -0.2,0 -0.3,0c-0.6,-0.1 -1.1,-0.1 -1.7,-0.1c-0.2,0 -0.3,0 -0.5,0c-0.6,0 -1.2,-0.1 -1.8,-0.1c-0.1,0 -0.2,0 -0.2,0c-0.7,0 -1.4,0 -2.2,0c-0.7,0 -1.4,0 -2.1,0c-0.1,0 -0.1,0 -0.2,0l-0.1,0c-0.1,0 -0.1,0 -0.2,0c-0.1,0 -0.2,0 -0.3,0c-0.4,0 -0.8,0 -1.2,0.1c-0.1,0 -0.3,0 -0.4,0c-0.2,0 -0.4,0 -0.5,0c-0.7,0 -1.4,0.1 -2.1,0.2c-0.8,0.1 -1.6,0.2 -2.4,0.3c-0.6,0.1 -1.2,0.2 -1.7,0.2c-0.1,0 -0.2,0 -0.3,0l-0.2,0c0,0 0,0 0,0c-0.1,0 -0.2,0 -0.3,0c0,0 0,0 -0.1,0c-0.5,0.1 -0.9,0.2 -1.4,0.2c0,0 0,0 0,0c-0.3,0 -0.6,0.1 -0.9,0.2c-0.1,0 -0.1,0 -0.2,0c0,0 0,0 -0.1,0c-0.1,0 -0.1,0 -0.2,0.1c-0.6,0.1 -1.2,0.2 -1.8,0.4c-0.7,0.2 -1.3,0.3 -2,0.5c-0.6,0.1 -1.1,0.3 -1.7,0.5c-0.1,0 -0.2,0 -0.3,0.1c-0.2,0 -0.3,0.1 -0.5,0.1c-0.2,0 -0.3,0.1 -0.5,0.1c-0.1,0 -0.2,0 -0.2,0.1c-0.1,0 -0.1,0 -0.2,0.1c-0.5,0.2 -0.9,0.3 -1.4,0.5c-1.2,0.4 -2.4,0.9 -3.6,1.3c-0.6,0.2 -1.1,0.5 -1.7,0.7c-0.4,0.2 -0.8,0.3 -1.1,0.5c0,0 0,0 -0.1,0c-0.5,0.2 -1,0.5 -1.5,0.7c-0.7,0.3 -1.4,0.7 -2,1c-0.5,0.3 -1,0.5 -1.6,0.8c-0.5,0.2 -0.9,0.5 -1.4,0.8c-0.1,0.1 -0.3,0.2 -0.4,0.2c0,0 0,0 0,0c-0.4,0.2 -0.8,0.4 -1.2,0.7c0,0 0,0 -0.1,0c0,0 -0.1,0 -0.1,0.1c-0.3,0.2 -0.5,0.3 -0.8,0.5c-0.2,0.1 -0.4,0.3 -0.6,0.4c0,0 0,0 0,0c-0.5,0.3 -0.9,0.6 -1.3,0.9c-0.3,0.2 -0.5,0.4 -0.8,0.6c0,0 -0.1,0.1 -0.1,0.1c-0.4,0.3 -0.8,0.6 -1.2,0.9c-0.2,0.2 -0.5,0.4 -0.8,0.6c0,0 0,0 0,0c-0.9,0.7 -1.8,1.3 -2.6,2.1c-0.2,0.2 -0.4,0.3 -0.6,0.5c0,0 0,0 -0.1,0c-0.1,0.1 -0.2,0.2 -0.3,0.2c-0.2,0.1 -0.3,0.3 -0.5,0.4c-0.3,0.3 -0.7,0.6 -1,0.9c0,0 0,0 0,0c0,0 -0.1,0.1 -0.1,0.1c-0.5,0.4 -1,0.9 -1.5,1.4c-0.2,0.1 -0.3,0.3 -0.5,0.5c-0.2,0.2 -0.5,0.5 -0.7,0.7c-0.2,0.2 -0.5,0.5 -0.7,0.7c0,0 -0.1,0.1 -0.1,0.1c0,0 -0.1,0.1 -0.1,0.1c-0.1,0.1 -0.1,0.1 -0.2,0.2c-0.3,0.3 -0.7,0.7 -1,1c-0.4,0.4 -0.8,0.8 -1.2,1.3c0,0 0,0.1 -0.1,0.1c-0.3,0.4 -0.7,0.8 -1,1.2c-0.2,0.2 -0.4,0.5 -0.6,0.7c-0.2,0.2 -0.4,0.5 -0.6,0.7c-0.2,0.3 -0.4,0.5 -0.6,0.8c-0.4,0.5 -0.8,1 -1.2,1.5c-0.3,0.4 -0.6,0.9 -0.9,1.3c1.7,1.2 3.5,2.3 5.4,3.3c0.8,-1 1.6,-1.9 2.4,-2.8c0.3,-0.4 0.7,-0.7 1,-1.1c0.1,-0.1 0.2,-0.2 0.4,-0.4c0.3,-0.3 0.5,-0.6 0.8,-0.9c0.6,-0.6 1.2,-1.2 1.8,-1.8c0.3,-0.3 0.7,-0.6 1,-1c0.2,-0.2 0.4,-0.4 0.6,-0.5c0.3,-0.3 0.6,-0.6 1,-0.9c0.1,-0.1 0.1,-0.1 0.2,-0.2c0.4,-0.4 0.9,-0.8 1.3,-1.1c0.6,-0.5 1.2,-0.9 1.8,-1.4c0.1,-0.1 0.2,-0.2 0.4,-0.3c0.6,-0.5 1.2,-0.9 1.8,-1.3c0.3,-0.2 0.6,-0.4 0.9,-0.6c1,-0.7 1.9,-1.3 2.9,-1.9c0.4,-0.3 0.9,-0.5 1.3,-0.8c0.9,-0.5 1.9,-1.1 2.8,-1.6c0.4,-0.2 0.9,-0.5 1.3,-0.7c0.1,0 0.1,-0.1 0.2,-0.1c0.5,-0.2 0.9,-0.5 1.4,-0.7c0.3,-0.2 0.6,-0.3 1,-0.5c0.4,-0.2 0.9,-0.4 1.3,-0.6c0.6,-0.3 1.2,-0.5 1.8,-0.8c0.1,0 0.2,-0.1 0.3,-0.1c0.5,-0.2 1.1,-0.4 1.6,-0.6c0.6,-0.2 1.1,-0.4 1.7,-0.6c0.3,-0.1 0.6,-0.2 0.9,-0.3c0.5,-0.2 0.9,-0.3 1.4,-0.4c0.4,-0.1 0.7,-0.2 1.1,-0.3c0.2,0 0.4,-0.1 0.5,-0.2c0.4,-0.1 0.8,-0.2 1.1,-0.3c0.6,-0.2 1.2,-0.3 1.9,-0.5c0.5,-0.1 1,-0.2 1.6,-0.3c0.4,-0.1 0.8,-0.2 1.2,-0.2c0.8,-0.2 1.6,-0.3 2.4,-0.4c0.5,-0.1 1,-0.2 1.4,-0.2c0.7,-0.1 1.4,-0.2 2.1,-0.3c0.5,-0.1 1.1,-0.1 1.7,-0.2c0.7,-0.1 1.4,-0.1 2.1,-0.2c0.8,0 1.6,-0.1 2.5,-0.1c0.7,0 1.3,0 2,0c1.1,0 2.1,0 3.2,0.1c0.6,0 1.2,0 1.8,0.1c0.5,0 0.9,0.1 1.4,0.1c0.5,0 1,0.1 1.5,0.1c0.7,0.1 1.5,0.2 2.2,0.3c0.4,0 0.8,0.1 1.1,0.2c0.8,-2.1 1.4,-4.4 1.9,-6.6c-0.3,0 -0.4,0 -0.6,-0.1z" class="st6"/>
 </g>
</svg>